<?xml version="1.0" encoding="UTF-8" standalone="no"?> <svg width="64" height="64" viewBox="0 0 64 64" fill="none" xmlns="http://www.w3.org/2000/svg">
<path d="M4.005 12.1L4.745 19.5C4.8417 20.4633 5.17006 21.3888 5.70203 22.1977C6.23401 23.0065 6.95382 23.6747 7.8 24.145L14.056 27.62L15 37.051V56.142C14.1439 56.363 13.3851 56.8615 12.8423 57.5596C12.2995 58.2576 12.0033 59.1158 12 60V61C12 61.2652 12.1054 61.5196 12.2929 61.7071C12.4804 61.8946 12.7348 62 13 62H21C21.2652 62 21.5196 61.8946 21.7071 61.7071C21.8946 61.5196 22 61.2652 22 61V57.037L22.931 44H24.069L25 57.037V61C25 61.2652 25.1054 61.5196 25.2929 61.7071C25.4804 61.8946 25.7348 62 26 62H36C36.2652 62 36.5196 61.8946 36.7071 61.7071C36.8946 61.5196 37 61.2652 37 61V57.037L37.931 44H39.069L40 57.037V61C40 61.2652 40.1054 61.5196 40.2929 61.7071C40.4804 61.8946 40.7348 62 41 62H49C49.2652 62 49.5196 61.8946 49.7071 61.7071C49.8946 61.5196 50 61.2652 50 61V60C49.9967 59.1158 49.7005 58.2576 49.1577 57.5596C48.6149 56.8615 47.8561 56.363 47 56.142V49C47 48.7348 46.8946 48.4804 46.7071 48.2929C46.5196 48.1054 46.2652 48 46 48C45.7348 48 45.4804 48.1054 45.2929 48.2929C45.1054 48.4804 45 48.7348 45 49V56H41.931L41 42.929C40.982 42.6763 40.8688 42.4398 40.6831 42.2674C40.4975 42.0949 40.2534 41.9994 40 42H37C36.7466 41.9994 36.5025 42.0949 36.3169 42.2674C36.1312 42.4398 36.018 42.6763 36 42.929L35.069 56H32V41C32 40.7348 31.8946 40.4804 31.7071 40.2929C31.5196 40.1054 31.2652 40 31 40C30.7348 40 30.4804 40.1054 30.2929 40.2929C30.1054 40.4804 30 40.7348 30 41V56H26.931L26 42.929C25.982 42.6763 25.8688 42.4398 25.6831 42.2674C25.4975 42.0949 25.2534 41.9994 25 42H22C21.7466 41.9994 21.5025 42.0949 21.3169 42.2674C21.1312 42.4398 21.018 42.6763 21 42.929L20.069 56H17V37C16.9954 36.9663 16.9888 36.9329 16.98 36.9H16.995L15.995 26.9C15.9789 26.7395 15.9242 26.5853 15.8355 26.4505C15.7469 26.3157 15.627 26.2044 15.486 26.126L8.772 22.4C8.20738 22.0862 7.72717 21.6403 7.37244 21.1004C7.0177 20.5605 6.79899 19.9428 6.735 19.3L6.081 12.764L9.243 11.973C9.45975 11.9187 9.65206 11.7934 9.78927 11.617C9.92648 11.4407 10.0007 11.2234 10 11V9C10 8.20435 9.68393 7.44129 9.12132 6.87868C8.55871 6.31607 7.79565 6 7 6C6.20435 6 5.44129 6.31607 4.87868 6.87868C4.31607 7.44129 4 8.20435 4 9V12L4.005 12.1ZM6 9C6 8.73478 6.10536 8.48043 6.29289 8.29289C6.48043 8.10536 6.73478 8 7 8C7.26522 8 7.51957 8.10536 7.70711 8.29289C7.89464 8.48043 8 8.73478 8 9V10.219L6 10.719V9ZM20 60H14C14 59.4696 14.2107 58.9609 14.5858 58.5858C14.9609 58.2107 15.4696 58 16 58H20V60ZM27 58H28.556C28.1961 58.6053 28.0041 59.2957 28 60H27V58ZM35 60H30C30 59.4696 30.2107 58.9609 30.5858 58.5858C30.9609 58.2107 31.4696 58 32 58H35V60ZM42 60V58H46C46.5304 58 47.0391 58.2107 47.4142 58.5858C47.7893 58.9609 48 59.4696 48 60H42Z" fill="black"/>
<path d="M58 12V9C58 8.20435 57.6839 7.44129 57.1213 6.87868C56.5587 6.31607 55.7956 6 55 6C54.2043 6 53.4413 6.31607 52.8787 6.87868C52.3161 7.44129 52 8.20435 52 9V10.93L51.084 17.34L46.907 19.428C46.7843 19.0169 46.5327 18.6562 46.1893 18.3991C45.8459 18.1419 45.429 18.002 45 18H44.188C44.7193 17.0895 44.9995 16.0542 45 15V14C45 13.7348 44.8946 13.4804 44.7071 13.2929C44.5196 13.1054 44.2652 13 44 13C43.7348 13 43.4804 13.1054 43.2929 13.2929C43.1053 13.4804 43 13.7348 43 14V15C43 16.0609 42.5786 17.0783 41.8284 17.8284C41.0783 18.5786 40.0609 19 39 19C37.9391 19 36.9217 18.5786 36.1716 17.8284C35.4214 17.0783 35 16.0609 35 15V11H44C44.2652 11 44.5196 10.8946 44.7071 10.7071C44.8946 10.5196 45 10.2652 45 10C44.9984 8.40919 44.3657 6.88399 43.2409 5.75911C42.116 4.63424 40.5908 4.00159 39 4H34C33.7348 4 33.4804 4.10536 33.2929 4.29289C33.1053 4.48043 33 4.73478 33 5V15C33.001 15.9325 33.2205 16.8517 33.641 17.684L33.541 17.656C31.8929 17.2093 30.1639 17.1497 28.489 17.482L28.452 17.49C28.8125 16.7094 28.9995 15.8599 29 15V10C29 8.4087 28.3678 6.88258 27.2426 5.75736C26.1174 4.63214 24.5913 4 23 4C21.4087 4 19.8826 4.63214 18.7573 5.75736C17.6321 6.88258 17 8.4087 17 10V15C17.0005 16.0542 17.2807 17.0895 17.812 18H16C15.6475 18.0018 15.3018 18.0967 14.9978 18.2751C14.6938 18.4536 14.4424 18.7091 14.269 19.016L10.916 17.34L10.492 14.375C10.4766 14.2423 10.4347 14.114 10.3689 13.9978C10.3031 13.8815 10.2147 13.7796 10.1089 13.6981C10.003 13.6166 9.88195 13.5571 9.75274 13.5232C9.62354 13.4892 9.48884 13.4815 9.35661 13.5005C9.22437 13.5195 9.09728 13.5647 8.98283 13.6336C8.86839 13.7025 8.76891 13.7937 8.69027 13.9017C8.61164 14.0097 8.55543 14.1323 8.52498 14.2624C8.49453 14.3925 8.49045 14.5273 8.51298 14.659L9.01298 18.142C9.03587 18.3021 9.09724 18.4542 9.19181 18.5853C9.28638 18.7165 9.41134 18.8227 9.55598 18.895L13.408 20.82C13.6 20.92 13.802 21.005 14.008 21.087C14.0239 21.7127 14.2359 22.3176 14.6141 22.8164C14.9923 23.3151 15.5175 23.6825 16.1157 23.8667C16.7139 24.0509 17.3549 24.0426 17.9481 23.8429C18.5413 23.6433 19.0569 23.2624 19.422 22.754C19.8165 23.5672 20.4754 24.2223 21.2909 24.6121C22.1063 25.0018 23.03 25.1031 23.9105 24.8993C24.7911 24.6955 25.5763 24.1987 26.1376 23.4902C26.6989 22.7818 27.0029 21.9038 27 21V19.82L28.881 19.443C30.2512 19.171 31.6658 19.2199 33.014 19.586L35 20.128V20.728L32.8 20.875C32.0408 20.9274 31.3297 21.2657 30.8101 21.8217C30.2904 22.3777 30.001 23.11 30 23.871V36H20C19.7348 36 19.4804 36.1054 19.2929 36.2929C19.1053 36.4804 19 36.7348 19 37C19 37.2652 19.1053 37.5196 19.2929 37.7071C19.4804 37.8946 19.7348 38 20 38H45V45C45 45.2652 45.1053 45.5196 45.2929 45.7071C45.4804 45.8946 45.7348 46 46 46C46.2652 46 46.5196 45.8946 46.7071 45.7071C46.8946 45.5196 47 45.2652 47 45V37.051L47.943 27.62L54.2 24.145C55.0462 23.6747 55.766 23.0065 56.298 22.1977C56.8299 21.3888 57.1583 20.4633 57.255 19.5L58 12.1V12ZM19 15V11H27V15C27 16.0609 26.5786 17.0783 25.8284 17.8284C25.0783 18.5786 24.0609 19 23 19C21.9391 19 20.9217 18.5786 20.1716 17.8284C19.4214 17.0783 19 16.0609 19 15ZM23 6C23.8865 6.00132 24.7477 6.29647 25.4486 6.83929C26.1496 7.38211 26.6509 8.14197 26.874 9H19.126C19.3491 8.14197 19.8504 7.38211 20.5513 6.83929C21.2523 6.29647 22.1134 6.00132 23 6V6ZM18 21C18 21.2652 17.8946 21.5196 17.7071 21.7071C17.5196 21.8946 17.2652 22 17 22C16.7348 22 16.4804 21.8946 16.2929 21.7071C16.1053 21.5196 16 21.2652 16 21V20H18V21ZM23 23C22.4696 23 21.9608 22.7893 21.5858 22.4142C21.2107 22.0391 21 21.5304 21 21V20.65C22.2925 21.1167 23.7075 21.1167 25 20.65V21C25 21.5304 24.7893 22.0391 24.4142 22.4142C24.0391 22.7893 23.5304 23 23 23ZM54 9C54 8.73478 54.1053 8.48043 54.2929 8.29289C54.4804 8.10536 54.7348 8 55 8C55.2652 8 55.5196 8.10536 55.7071 8.29289C55.8946 8.48043 56 8.73478 56 9V10.719L54 10.219V9ZM43 20H45V21C45 21.2652 44.8946 21.5196 44.7071 21.7071C44.5196 21.8946 44.2652 22 44 22C43.7348 22 43.4804 21.8946 43.2929 21.7071C43.1053 21.5196 43 21.2652 43 21V20ZM41 20.65V21C41 21.5304 40.7893 22.0391 40.4142 22.4142C40.0391 22.7893 39.5304 23 39 23C38.4696 23 37.9608 22.7893 37.5858 22.4142C37.2107 22.0391 37 21.5304 37 21V20.65C38.2925 21.1167 39.7075 21.1167 41 20.65ZM35 6H39C39.8865 6.00132 40.7477 6.29647 41.4486 6.83929C42.1496 7.38211 42.6509 8.14197 42.874 9H35V6ZM55.265 19.3C55.201 19.9428 54.9823 20.5605 54.6275 21.1004C54.2728 21.6403 53.7926 22.0862 53.228 22.4L46.514 26.13C46.373 26.2084 46.2531 26.3197 46.1645 26.4545C46.0758 26.5893 46.0211 26.7435 46.005 26.904L45.1 36H32V23.871C31.9994 23.6168 32.0957 23.372 32.2692 23.1862C32.4427 23.0005 32.6804 22.8878 32.934 22.871L35.398 22.707C35.6891 23.3322 36.1381 23.8707 36.7007 24.2696C37.2633 24.6684 37.9201 24.9139 38.6064 24.9817C39.2927 25.0495 39.9848 24.9374 40.6146 24.6563C41.2444 24.3753 41.7901 23.9351 42.198 23.379C42.5957 23.6854 43.0644 23.8863 43.5606 23.963C44.0567 24.0397 44.5642 23.9897 45.0359 23.8177C45.5075 23.6457 45.928 23.3572 46.2583 22.9791C46.5886 22.601 46.8179 22.1455 46.925 21.655L52.447 18.9C52.5916 18.8277 52.7166 18.7215 52.8112 18.5903C52.9057 18.4592 52.9671 18.3071 52.99 18.147L53.833 12.247L55.919 12.769L55.265 19.3Z" fill="black"/>
</svg>
