<?xml version="1.0" encoding="UTF-8" standalone="no"?> <svg xmlns="http://www.w3.org/2000/svg" width="40px" height="40px"  viewBox="0 0 64 64"><g id="Layer_91" data-name="Layer 91"><path d="M60.79,50.92,40.28,30.4a1.51,1.51,0,0,0-2.12,0L36.56,32,25.46,20.91,36.23,10.15a1.51,1.51,0,0,0-.87-2.55L22,5.81a1.53,1.53,0,0,0-1.26.43L9.24,17.7a1.51,1.51,0,0,0,0,2.12l.52.52L9.07,21l-.52-.52a1.51,1.51,0,0,0-2.12,0L2.87,24.07a1.5,1.5,0,0,0,0,2.12l7.59,7.6a1.51,1.51,0,0,0,2.13,0l3.56-3.56a1.51,1.51,0,0,0,0-2.12l-.53-.52.69-.69.53.52a1.51,1.51,0,0,0,2.12,0L23.34,23,34.43,34.12,33,35.53a1.49,1.49,0,0,0,0,2.12L53.55,58.16a1.45,1.45,0,0,0,1.06.44,1.48,1.48,0,0,0,1.06-.44L60.79,53A1.49,1.49,0,0,0,60.79,50.92ZM17.9,24.24l-.53-.53a1.51,1.51,0,0,0-2.12,0l-2.81,2.82a1.51,1.51,0,0,0,0,2.12l.52.52-1.43,1.44L6.05,25.13l1.44-1.44.52.53a1.51,1.51,0,0,0,2.12,0l2.81-2.81a1.5,1.5,0,0,0,0-2.13l-.52-.52L22.3,8.88,32,10.17ZM54.61,55,36.21,36.59l3-3L57.61,52Z"/></g></svg>